# xmcd CD database file
#
# Track frame offsets:
#	150
#	24365
#	45510
#
# Disc length: 926 seconds
#
# Revision: 0
# Processed by: cddbd v1.5.1PL0 Copyright (c) Steve Scherf et al.
# Submitted via: CDex 1.51
#
DISCID=17039c03
DTITLE=米倉　利紀 - 情熱灼熱
DYEAR=2005
DGENRE=JPop
TTITLE0=情熱灼熱
TTITLE1=what's goin' on?(A.T SUMMER SHOOT MIX)
TTITLE2=情熱灼熱(instrumental)
EXTD=YEAR: 2005
EXTT0=
EXTT1=
EXTT2=
PLAYORDER=
